<svg width="60" height="60" viewBox="0 0 60 60" fill="none" xmlns="http://www.w3.org/2000/svg">
<mask id="mask0" mask-type="alpha" maskUnits="userSpaceOnUse" x="0" y="0" width="60" height="60">
<circle cx="30" cy="30" r="30" fill="#E37C42"/>
</mask>
<g mask="url(#mask0)">
<circle cx="30.0001" cy="30" r="30" fill="#E59A6F"/>
<path d="M29.3902 48.4048L41.7808 12.6328H48.0357L31.9517 56H26.8882L10.834 12.6328H17.0591L29.3902 48.4048Z" fill="#000015"/>
<path d="M29.3902 48.4048L41.7808 12.6328H48.0357L31.9517 56H26.8882L10.834 12.6328H17.0591L29.3902 48.4048Z" fill="#000015"/>
<g style="mix-blend-mode:color-burn">
<path d="M65 26.8573C62.6485 46.5441 33.1758 47.9282 32.3919 26.8573C31.6081 5.78642 1.66508 3.01795 -1 26.8573L-1.00001 67L65 65.7696L65 26.8573Z" fill="#FFB4B4"/>
<path d="M65 26.8573C62.6485 46.5441 33.1758 47.9282 32.3919 26.8573C31.6081 5.78642 1.66508 3.01795 -1 26.8573L-1.00001 67L65 65.7696L65 26.8573Z" stroke="#FFB4B4"/>
</g>
<g style="mix-blend-mode:color-dodge">
<path d="M-1 26.6214C1.13777 8.66151 27.9311 7.39882 28.6437 26.6214C29.3563 45.844 56.5772 48.3696 59 26.6214L59 -10L-1 -8.8775L-1 26.6214Z" fill="#FFB4B4"/>
<path d="M-1 26.6214C1.13777 8.66151 27.9311 7.39882 28.6437 26.6214C29.3563 45.844 56.5772 48.3696 59 26.6214L59 -10L-1 -8.8775L-1 26.6214Z" stroke="#FFB4B4"/>
</g>
</g>
</svg>
